<svg width="33" height="28" viewBox="0 0 33 28" fill="none" xmlns="http://www.w3.org/2000/svg">
<path d="M0 27.3353H32.1941L0 0V27.3353ZM0.999598 23.516H3.99839V22.6673H0.999598V20.121H2.99879V19.2723H0.999598V16.7261H3.99839V15.8773H0.999598V13.3311H2.99879V12.4824H0.999598V9.93618H3.99839V9.08744H0.999598V2.04885L29.781 26.4866H0.999598V23.516Z" fill="#333333"/>
<path d="M6.49739 11.8823V23.516H20.1989L6.49739 11.8823ZM7.49699 13.9312L17.7858 22.6673H7.49699V13.9312Z" fill="#333333"/>
<path d="M32.1753 19.8558L30.9398 15.6605L12.4957 0L8.79022 3.14627L27.2343 18.8068L32.1753 19.8558ZM30.8009 18.6888L27.7451 18.0404L13.2024 5.69249L15.4945 3.74633L30.0372 16.0942L30.8009 18.6888ZM12.4957 1.20012L14.7878 3.14627L12.4957 5.09243L10.2037 3.14627L12.4957 1.20012Z" fill="#FBD846"/>
</svg>
