<svg width="79" height="66" viewBox="0 0 79 66" fill="none" xmlns="http://www.w3.org/2000/svg">
<path d="M77.0636 63.4045C69.0562 63.4045 61.0274 63.4045 53.02 63.4045C39.7169 63.4045 26.4139 63.4045 13.1109 63.4045C9.26728 63.4045 5.44506 63.4045 1.60149 63.4045C2.13532 63.761 2.66915 64.1175 3.20298 64.4741C3.20298 59.9105 3.20298 55.347 3.20298 50.7834C3.20298 41.6564 3.20298 32.5293 3.20298 23.4022C3.20298 16.5711 3.20298 9.74006 3.20298 2.92326C3.20298 2.33856 3.20298 1.76812 3.20298 1.18341C2.66915 1.53994 2.13532 1.89647 1.60149 2.25299C9.60893 2.25299 17.6377 2.25299 25.6452 2.25299C38.9482 2.25299 52.2512 2.25299 65.5543 2.25299C69.3978 2.25299 73.2201 2.25299 77.0636 2.25299C76.5298 1.89647 75.996 1.53994 75.4622 1.18341C75.4622 5.74696 75.4622 10.3105 75.4622 14.874C75.4622 24.0011 75.4622 33.1282 75.4622 42.2553C75.4622 49.0864 75.4622 55.9174 75.4622 62.7342C75.4622 63.3189 75.4622 63.8894 75.4622 64.4741C75.4622 65.8574 78.6651 65.8574 78.6651 64.4741C78.6651 59.9105 78.6651 55.347 78.6651 50.7834C78.6651 41.6564 78.6651 32.5293 78.6651 23.4022C78.6651 16.5711 78.6651 9.74006 78.6651 2.92326C78.6651 2.33856 78.6651 1.76812 78.6651 1.18341C78.6651 0.598707 77.9391 0.113831 77.0636 0.113831C69.0562 0.113831 61.0274 0.113831 53.02 0.113831C39.7169 0.113831 26.4139 0.113831 13.1109 0.113831C9.26728 0.113831 5.44506 0.113831 1.60149 0.113831C0.726008 0.113831 0 0.598707 0 1.18341C0 5.74696 0 10.3105 0 14.874C0 24.0011 0 33.1282 0 42.2553C0 49.0864 0 55.9174 0 62.7342C0 63.3189 0 63.8894 0 64.4741C0 65.0588 0.726008 65.5437 1.60149 65.5437C9.60893 65.5437 17.6377 65.5437 25.6452 65.5437C38.9482 65.5437 52.2512 65.5437 65.5543 65.5437C69.3978 65.5437 73.2201 65.5437 77.0636 65.5437C79.1349 65.5437 79.1349 63.4045 77.0636 63.4045Z" fill="#333333"/>
<path d="M37.8917 1.15782C37.8917 5.74996 37.8917 10.3421 37.8917 14.9342C37.8917 24.1185 37.8917 33.3028 37.8917 42.487C37.8917 49.3609 37.8917 56.2347 37.8917 63.0942C37.8917 63.6826 37.8917 64.2566 37.8917 64.845C37.8917 66.237 41.1083 66.237 41.1083 64.845C41.1083 60.2528 41.1083 55.6607 41.1083 51.0686C41.1083 41.8843 41.1083 32.7 41.1083 23.5158C41.1083 16.6419 41.1083 9.76807 41.1083 2.90857C41.1083 2.32021 41.1083 1.74619 41.1083 1.15782C41.1083 -0.234167 37.8917 -0.234167 37.8917 1.15782Z" fill="#FBD846"/>
<path d="M1.60834 2.7499C9.64987 2.7499 17.7128 2.7499 25.7544 2.7499C39.114 2.7499 52.4737 2.7499 65.8334 2.7499C69.6933 2.7499 73.5318 2.7499 77.3917 2.7499C79.4718 2.7499 79.4718 0.0187378 77.3917 0.0187378C69.3502 0.0187378 61.2872 0.0187378 53.2457 0.0187378C39.886 0.0187378 26.5264 0.0187378 13.1667 0.0187378C9.30676 0.0187378 5.46827 0.0187378 1.60834 0.0187378C-0.47174 0.0187378 -0.47174 2.7499 1.60834 2.7499Z" fill="#333333"/>
<path d="M77.3917 63.199C69.3502 63.199 61.2872 63.199 53.2457 63.199C39.886 63.199 26.5263 63.199 13.1667 63.199C9.30673 63.199 5.46824 63.199 1.60831 63.199C2.14441 63.6542 2.68051 64.1094 3.21661 64.5646C3.21661 57.6274 3.21661 50.7085 3.21661 43.7714C3.21661 32.519 3.21661 21.2666 3.21661 10.0142C3.21661 7.13743 3.21661 4.26061 3.21661 1.36558C2.68051 1.82077 2.14441 2.27597 1.60831 2.73116C9.64984 2.73116 17.7128 2.73116 25.7543 2.73116C39.114 2.73116 52.4737 2.73116 65.8333 2.73116C69.6933 2.73116 73.5318 2.73116 77.3917 2.73116C76.8556 2.27597 76.3195 1.82077 75.7834 1.36558C75.7834 8.30272 75.7834 15.2217 75.7834 22.1588C75.7834 33.4112 75.7834 44.6635 75.7834 55.9159C75.7834 58.7927 75.7834 61.6696 75.7834 64.5646C75.7834 66.3307 79 66.3307 79 64.5646C79 57.6274 79 50.7085 79 43.7714C79 32.519 79 21.2666 79 10.0142C79 7.13743 79 4.26061 79 1.36558C79 0.619063 78.2709 0 77.3917 0C69.3502 0 61.2872 0 53.2457 0C39.886 0 26.5263 0 13.1667 0C9.30673 0 5.46824 0 1.60831 0C0.729099 0 0 0.619063 0 1.36558C0 8.30272 0 15.2217 0 22.1588C0 33.4112 0 44.6635 0 55.9159C0 58.7927 0 61.6696 0 64.5646C0 65.3111 0.729099 65.9302 1.60831 65.9302C9.64984 65.9302 17.7128 65.9302 25.7543 65.9302C39.114 65.9302 52.4737 65.9302 65.8333 65.9302C69.6933 65.9302 73.5318 65.9302 77.3917 65.9302C79.4718 65.9302 79.4718 63.199 77.3917 63.199Z" fill="#333333"/>
<path d="M43.5529 30.061C43.5529 32.0092 43.5529 33.9392 43.5529 35.8874C43.5529 37.6536 46.7695 37.6536 46.7695 35.8874C46.7695 33.9392 46.7695 32.0092 46.7695 30.061C46.7695 28.313 43.5529 28.313 43.5529 30.061Z" fill="#FBD846"/>
<path d="M32.2305 30.061C32.2305 32.0092 32.2305 33.9392 32.2305 35.8874C32.2305 37.6536 35.4471 37.6536 35.4471 35.8874C35.4471 33.9392 35.4471 32.0092 35.4471 30.061C35.4471 28.313 32.2305 28.313 32.2305 30.061Z" fill="#FBD846"/>
</svg>
