<svg width="92" height="78" viewBox="0 0 92 78" fill="none" xmlns="http://www.w3.org/2000/svg">
<path d="M59.7 28.6141L29.5 48.992C28.9 49.4165 28.7 50.2656 29.3 50.7751C29.6 51.1147 30 51.2845 30.5 51.2845C30.8 51.2845 31.2 51.1996 31.4 51.0298L61.6 30.6519C62.2 30.2273 62.4 29.3783 61.8 28.8688C61.3 28.2745 60.4 28.1896 59.7 28.6141Z" fill="#333333"/>
<path d="M37.6 37.6989C38 37.6989 38.4 37.6989 38.8 37.614C42.9 37.1046 45.8 33.7932 45.1 30.227C44.8 28.5289 43.7 27.0005 42.1 25.9816C40.5 24.9627 38.5 24.5382 36.5 24.7929C34.5 25.0476 32.7 25.9816 31.5 27.3402C30.3 28.6987 29.8 30.3968 30.1 32.095C30.7 35.4064 34 37.6989 37.6 37.6989ZM36.9 27.4251C37.1 27.4251 37.4 27.3402 37.6 27.3402C39.8 27.3402 41.8 28.6987 42.1 30.6516C42.5 32.7743 40.8 34.7271 38.3 35.0668C35.8 35.4064 33.5 33.963 33.1 31.8403C32.7 29.7176 34.5 27.7647 36.9 27.4251Z" fill="#333333"/>
<path d="M53.6 41.9445C49.4 41.9445 46 44.8313 46 48.3975C46 51.9636 49.4 54.8505 53.6 54.8505C57.8 54.8505 61.2 51.9636 61.2 48.3975C61.1 44.8313 57.7 41.9445 53.6 41.9445ZM53.6 52.2183C51.1 52.2183 49 50.4353 49 48.3126C49 46.1899 51.1 44.4068 53.6 44.4068C56.1 44.4068 58.2 46.1899 58.2 48.3126C58.1 50.5202 56.1 52.2183 53.6 52.2183Z" fill="#333333"/>
<path d="M91 38.9727C91 38.8878 91.1 38.718 91.1 38.6331C91.1 34.9821 86.6 33.1141 82.7 31.5008C79.9 30.3121 76.9 29.0385 76.1 27.5102C75.3 25.8969 76.4 23.2648 77.5 20.8024C79 17.3212 80.5 13.7551 77.7 11.3777C74.9 9.00024 70.9 9.84932 66.9 10.6135C64.1 11.1229 61.2 11.7173 59.3 11.038C57.4 10.3588 55.8 8.23607 54.3 6.19828C52.1 3.31141 49.7 0 45.5 0C41.3 0 38.9 3.31141 36.8 6.28319C35.3 8.40589 33.8 10.5286 31.9 11.2078C30 11.8871 27 11.2928 24.2 10.6984C20.2 9.84932 16.1 9.00024 13.4 11.2928C10.6 13.6702 12 17.2363 13.3 20.7175C14.3 23.2648 15.2 25.812 14.4 27.5102C13.6 29.1234 10.8 30.3121 8.1 31.5008C4.3 33.199 0 35.067 0 38.6331C0 38.718 -9.68575e-08 38.8878 0.0999999 38.9727C0.0999999 39.0577 0 39.2275 0 39.3124C0 42.8785 4.3 44.8314 8.1 46.4446C10.8 47.6334 13.6 48.8221 14.4 50.4353C15.2 52.0486 14.2 54.6807 13.3 57.228C12 60.7092 10.6 64.2753 13.4 66.6527C16.2 69.0302 20.3 68.0962 24.2 67.2471C27 66.6527 30 66.0584 31.9 66.7376C33.8 67.4169 35.3 69.5396 36.8 71.6623C38.9 74.6341 41.3 77.9455 45.5 77.9455C49.7 77.9455 52.2 74.6341 54.3 71.7472C55.8 69.7094 57.4 67.5867 59.3 66.9075C61.3 66.2282 64.1 66.7376 66.9 67.332C70.8 68.0962 74.9 68.9453 77.7 66.5678C80.5 64.1904 79 60.6243 77.5 57.143C76.4 54.5958 75.3 52.0486 76.1 50.4353C76.9 48.8221 79.8 47.6334 82.7 46.4446C86.6 44.7465 91.1 42.8785 91.1 39.3124C91.1 39.1426 91 39.0577 91 38.9727ZM81.3 44.1521C78 45.5956 74.5 47.039 73.3 49.5013C72 52.0486 73.4 55.1053 74.6 58.077C75.8 60.879 77 63.596 75.5 64.7848C73.9 66.1433 70.8 65.5489 67.5 64.8697C64.2 64.1904 60.9 63.596 58 64.6149C55.2 65.6338 53.4 68.0113 51.7 70.3887C49.8 72.9359 48 75.3982 45.4 75.3982C42.9 75.3982 41.1 72.9359 39.2 70.3038C37.5 67.8414 35.7 65.3791 32.9 64.3602C30 63.3413 26.6 64.0206 23.3 64.7848C20 65.464 16.9 66.1433 15.3 64.8697C13.8 63.5961 14.8 60.879 15.9 58.077C17 55.1053 18.2 52.0486 16.9 49.5862C15.7 47.1239 12.4 45.6805 9.2 44.3219C5.9 42.8785 2.8 41.52 2.8 39.3973C2.8 39.3124 2.8 39.1426 2.7 39.0577C2.7 38.9727 2.8 38.8029 2.8 38.718C2.8 36.6802 5.9 35.3217 9.2 33.7934C12.4 32.4348 15.7 30.9914 16.9 28.5291C18.1 25.9818 17 22.9251 15.9 20.0383C14.8 17.1514 13.8 14.4344 15.3 13.2456C16.9 11.8871 20 12.5664 23.3 13.3305C26.6 14.0098 30 14.774 32.9 13.7551C35.7 12.7362 37.5 10.2739 39.2 7.81153C41.1 5.17939 42.8 2.71705 45.4 2.71705C48 2.71705 49.8 5.17938 51.7 7.72662C53.5 10.104 55.3 12.4815 58 13.5004C60.9 14.5193 64.2 13.84 67.5 13.2456C70.8 12.5664 73.9 11.972 75.5 13.3305C77 14.5193 75.8 17.2363 74.6 20.0383C73.3 23.0101 72 26.0667 73.3 28.614C74.5 31.0763 78 32.5197 81.3 33.9632C84.8 35.4066 88 36.85 88 38.8878C88 38.9727 88 39.1426 88.1 39.2275C88.1 39.3124 88 39.4822 88 39.5671C88.1 41.2653 84.8 42.7087 81.3 44.1521Z" fill="#FBD846"/>
</svg>
