<svg width="87" height="74" viewBox="0 0 87 74" fill="none" xmlns="http://www.w3.org/2000/svg">
<path d="M86.215 73.0208H1.52588e-05L86.215 0V73.0208ZM83.5381 62.8183H75.5074V60.551H83.5381V53.7493H78.1843V51.4821H83.5381V44.6804H75.5074V42.4132H83.5381V35.6115H78.1843V33.3442H83.5381V26.5425H75.5074V24.2753H83.5381V5.4731L6.46206 70.7536H83.5381V62.8183Z" fill="#333333"/>
<path d="M68.8151 31.7413V62.8183H32.1228L68.8151 31.7413ZM66.1382 37.2144L38.5849 60.551H66.1382V37.2144Z" fill="#333333"/>
<path d="M0.0521927 53.0408L3.36084 41.8339L52.7537 0L62.6769 8.40464L13.2841 50.2385L0.0521927 53.0408ZM3.73293 49.9234L11.9162 48.1912L50.8611 15.2063L44.723 10.0076L5.77808 42.9924L3.73293 49.9234ZM52.7537 3.20587L46.6155 8.40464L52.7537 13.6034L58.8918 8.40464L52.7537 3.20587Z" fill="#FBD846"/>
</svg>
