<svg width="86" height="73" viewBox="0 0 86 73" fill="none" xmlns="http://www.w3.org/2000/svg">
<path d="M84.8328 5.84525H68.7561L48.9357 0.354697C47.7455 0.024026 46.4835 -0.077193 45.2414 0.0584052C43.9993 0.194003 42.8085 0.563008 41.7555 1.13857L29.8129 7.65298C29.684 7.72316 29.5727 7.8142 29.4853 7.9209C29.3979 8.0276 29.3361 8.14787 29.3034 8.27485C29.2708 8.40183 29.2679 8.53303 29.2949 8.66096C29.322 8.78889 29.3784 8.91104 29.4611 9.02044C29.5437 9.12984 29.6509 9.22435 29.7766 9.29857C29.9023 9.37279 30.0439 9.42526 30.1935 9.453C30.343 9.48074 30.4976 9.48319 30.6482 9.46023C30.7989 9.43726 30.9427 9.38932 31.0716 9.31914L43.0142 2.81336C43.7769 2.39748 44.6393 2.13145 45.5385 2.03466C46.4377 1.93788 47.3511 2.0128 48.2118 2.25394L68.2152 7.77903C68.3313 7.81144 68.4528 7.82776 68.5751 7.82737H83.6696V24.4561H74.9968C74.7831 24.4564 74.5736 24.5064 74.3911 24.6008C74.2086 24.6951 74.0601 24.8303 73.9618 24.9914C72.6555 26.8676 70.6603 28.3282 68.2823 29.149V24.6996C70.151 24.0228 72.1459 22.8452 73.4189 20.7923C73.4906 20.6771 73.5348 20.5511 73.5492 20.4214C73.5635 20.2917 73.5476 20.1608 73.5024 20.0363C73.4571 19.9118 73.3835 19.7961 73.2856 19.6958C73.1877 19.5955 73.0675 19.5125 72.9318 19.4516C72.7962 19.3907 72.6477 19.3531 72.495 19.341C72.3422 19.3288 72.1881 19.3423 72.0415 19.3807C71.8948 19.4191 71.7586 19.4817 71.6404 19.5648C71.5223 19.6479 71.4245 19.75 71.3528 19.8651C69.1363 23.4634 63.6256 23.6239 63.5951 23.6239C56.2136 23.6239 54.0825 19.2488 53.9971 19.0675C53.9125 18.8807 53.7633 18.72 53.5691 18.6066C53.3749 18.4932 53.1448 18.4323 52.9092 18.4321H41.9548C41.5394 18.4411 41.1261 18.3794 40.7392 18.2507C40.3523 18.1219 39.9997 17.9287 39.7021 17.6824C39.4046 17.4362 39.1681 17.1418 39.0066 16.8167C38.8452 16.4916 38.762 16.1424 38.762 15.7895C38.762 15.4367 38.8452 15.0875 39.0066 14.7624C39.1681 14.4373 39.4046 14.1429 39.7021 13.8966C39.9997 13.6504 40.3523 13.4571 40.7392 13.3284C41.1261 13.1997 41.5394 13.138 41.9548 13.147H55.0301C55.1873 13.1526 55.3443 13.1311 55.4915 13.0838C55.6387 13.0366 55.7731 12.9645 55.8867 12.872C56.0003 12.7795 56.0907 12.6685 56.1524 12.5456C56.2142 12.4227 56.246 12.2904 56.246 12.1568C56.246 12.0232 56.2142 11.8909 56.1524 11.768C56.0907 11.6451 56.0003 11.534 55.8867 11.4415C55.7731 11.349 55.6387 11.277 55.4915 11.2297C55.3443 11.1825 55.1873 11.161 55.0301 11.1666H41.9548C41.2309 11.1547 40.5116 11.2655 39.8387 11.4925C39.1659 11.7195 38.5531 12.0581 38.0363 12.4886C37.5194 12.919 37.1088 13.4327 36.8286 13.9995C36.5483 14.5662 36.4039 15.1748 36.4039 15.7895C36.4039 16.4043 36.5483 17.0128 36.8286 17.5796C37.1088 18.1464 37.5194 18.66 38.0363 19.0905C38.5531 19.5209 39.1659 19.8596 39.8387 20.0866C40.5116 20.3136 41.2309 20.4243 41.9548 20.4125H52.1791C53.1532 21.9301 56.2725 25.6043 63.6195 25.6043C64.4047 25.5748 65.1849 25.4829 65.9499 25.3298V40.0058C65.9493 40.393 65.7679 40.7643 65.4454 41.0382C65.1229 41.312 64.6856 41.466 64.2295 41.4665H4.05273C3.59715 41.466 3.16029 41.3125 2.83758 41.0395C2.51486 40.7664 2.33252 40.3961 2.33037 40.0092V14.6077C2.33091 14.2204 2.51233 13.8492 2.83484 13.5753C3.15734 13.3015 3.5946 13.1474 4.05069 13.147H33.7863C33.9435 13.1526 34.1005 13.1311 34.2477 13.0838C34.3949 13.0366 34.5294 12.9645 34.6429 12.872C34.7565 12.7795 34.8469 12.6685 34.9086 12.5456C34.9704 12.4227 35.0022 12.2904 35.0022 12.1568C35.0022 12.0232 34.9704 11.8909 34.9086 11.768C34.8469 11.6451 34.7565 11.534 34.6429 11.4415C34.5294 11.349 34.3949 11.277 34.2477 11.2297C34.1005 11.1825 33.9435 11.161 33.7863 11.1666H4.05273C2.97903 11.1698 1.95038 11.5333 1.19116 12.178C0.431939 12.8226 0.00375141 13.696 0 14.6077V40.0092C0.00375141 40.9209 0.431939 41.7943 1.19116 42.4389C1.95038 43.0836 2.97903 43.4471 4.05273 43.4503H64.2295C65.3032 43.4471 66.3319 43.0836 67.0911 42.4389C67.8503 41.7943 68.2785 40.9209 68.2823 40.0092V31.2468C72.4631 30.1159 74.8036 27.5554 75.6577 26.4348H84.8328C85.142 26.4348 85.4386 26.3306 85.6574 26.1451C85.8763 25.9597 85.9995 25.708 86 25.4455V6.83631C86 6.57346 85.877 6.32138 85.6581 6.13552C85.4392 5.94966 85.1423 5.84525 84.8328 5.84525Z" fill="black"/>
<path d="M7.90429 32.5243V22.0871C9.13113 21.8869 10.2591 21.3789 11.1425 20.6289C12.0259 19.8788 12.6241 18.9211 12.8599 17.8794H32.7738C33.0746 17.8687 33.359 17.7597 33.5675 17.5752C33.7759 17.3907 33.8923 17.1449 33.8923 16.8892C33.8923 16.6335 33.7759 16.3877 33.5675 16.2032C33.359 16.0186 33.0746 15.9097 32.7738 15.899H11.8045C11.4949 15.899 11.1981 16.0034 10.9792 16.1893C10.7603 16.3751 10.6373 16.6272 10.6373 16.89C10.6381 17.3253 10.5379 17.7564 10.3424 18.1588C10.1469 18.5612 9.85995 18.9269 9.49794 19.235C9.13593 19.5432 8.70596 19.7878 8.23259 19.9548C7.75922 20.1219 7.25172 20.2081 6.7391 20.2085C6.4327 20.2104 6.13942 20.3144 5.92257 20.4982C5.70571 20.682 5.58268 20.9308 5.58002 21.191V33.4221C5.58002 33.5522 5.61022 33.681 5.66891 33.8011C5.72759 33.9213 5.8136 34.0304 5.92201 34.1223C6.03042 34.2142 6.15911 34.287 6.30071 34.3366C6.44232 34.3863 6.59405 34.4117 6.74724 34.4115C7.78095 34.4128 8.77184 34.7622 9.5026 35.383C10.2334 36.0038 10.6443 36.8453 10.6454 37.723C10.6454 37.8531 10.6756 37.9819 10.7343 38.102C10.793 38.2222 10.879 38.3313 10.9874 38.4232C11.0958 38.5151 11.2245 38.588 11.3661 38.6376C11.5077 38.6872 11.6595 38.7126 11.8126 38.7124H56.4699C56.6231 38.7126 56.7748 38.6872 56.9164 38.6376C57.058 38.588 57.1867 38.5151 57.2952 38.4232C57.4036 38.3313 57.4896 38.2222 57.5483 38.102C57.6069 37.9819 57.6371 37.8531 57.6371 37.723C57.6382 36.8453 58.0492 36.0038 58.78 35.383C59.5107 34.7622 60.5016 34.4128 61.5353 34.4115C61.6885 34.4117 61.8402 34.3863 61.9818 34.3366C62.1235 34.287 62.2521 34.2142 62.3606 34.1223C62.469 34.0304 62.555 33.9213 62.6137 33.8011C62.6723 33.681 62.7025 33.5522 62.7025 33.4221V28.9468C62.7091 28.8133 62.6838 28.68 62.6282 28.555C62.5725 28.43 62.4877 28.3159 62.3787 28.2194C62.2698 28.123 62.139 28.0463 61.9943 27.9938C61.8495 27.9414 61.6937 27.9144 61.5363 27.9144C61.379 27.9144 61.2232 27.9414 61.0784 27.9938C60.9337 28.0463 60.8029 28.123 60.694 28.2194C60.585 28.3159 60.5002 28.43 60.4445 28.555C60.3889 28.68 60.3636 28.8133 60.3701 28.9468V32.5243C59.1435 32.7249 58.0158 33.233 57.1325 33.983C56.2492 34.733 55.6509 35.6905 55.4146 36.732H12.8599C12.6236 35.6905 12.0252 34.733 11.1419 33.983C10.2586 33.233 9.1309 32.7249 7.90429 32.5243Z" fill="#FBD846"/>
<path d="M32.6025 24.0508H35.4087C35.7096 24.0401 35.9939 23.9311 36.2024 23.7466C36.4108 23.5621 36.5272 23.3163 36.5272 23.0606C36.5272 22.8049 36.4108 22.5591 36.2024 22.3746C35.9939 22.1901 35.7096 22.0811 35.4087 22.0704H34.4916V21.4333C34.4982 21.2998 34.4729 21.1665 34.4172 21.0415C34.3616 20.9165 34.2767 20.8024 34.1678 20.7059C34.0588 20.6095 33.9281 20.5328 33.7833 20.4803C33.6385 20.4279 33.4828 20.4009 33.3254 20.4009C33.168 20.4009 33.0123 20.4279 32.8675 20.4803C32.7227 20.5328 32.5919 20.6095 32.483 20.7059C32.3741 20.8024 32.2892 20.9165 32.2336 21.0415C32.1779 21.1665 32.1526 21.2998 32.1592 21.4333V22.0946C31.2005 22.156 30.3088 22.5353 29.6768 23.1504C29.0447 23.7655 28.723 24.567 28.7813 25.3818C28.8395 26.1966 29.2729 26.9593 29.9879 27.505C30.7029 28.0507 31.6421 28.3356 32.6025 28.2982H34.0463C34.4011 28.2982 34.7415 28.4179 34.9924 28.631C35.2433 28.844 35.3843 29.133 35.3843 29.4343C35.3843 29.7356 35.2433 30.0246 34.9924 30.2376C34.7415 30.4507 34.4011 30.5704 34.0463 30.5704H31.2441C31.0869 30.5648 30.9299 30.5863 30.7827 30.6336C30.6355 30.6808 30.5011 30.7528 30.3875 30.8453C30.2739 30.9378 30.1835 31.0489 30.1218 31.1718C30.06 31.2947 30.0282 31.427 30.0282 31.5606C30.0282 31.6942 30.06 31.8265 30.1218 31.9494C30.1835 32.0723 30.2739 32.1834 30.3875 32.2759C30.5011 32.3684 30.6355 32.4404 30.7827 32.4876C30.9299 32.5349 31.0869 32.5564 31.2441 32.5508H32.1592V33.1879C32.1718 33.4434 32.3001 33.6848 32.5175 33.8618C32.7348 34.0388 33.0243 34.1376 33.3254 34.1376C33.6265 34.1376 33.916 34.0388 34.1333 33.8618C34.3507 33.6848 34.479 33.4434 34.4916 33.1879V32.5214C35.4511 32.4607 36.3438 32.0816 36.9766 31.4662C37.6094 30.8508 37.9313 30.0485 37.8728 29.2331C37.8143 28.4177 37.3799 27.6546 36.6638 27.109C35.9477 26.5634 35.0073 26.2792 34.0463 26.3178H32.6025C32.4228 26.3238 32.2435 26.2989 32.0754 26.2446C31.9074 26.1903 31.7539 26.1078 31.6243 26.0019C31.4947 25.8961 31.3916 25.7691 31.3211 25.6286C31.2507 25.4881 31.2144 25.337 31.2144 25.1843C31.2144 25.0316 31.2507 24.8805 31.3211 24.74C31.3916 24.5995 31.4947 24.4725 31.6243 24.3667C31.7539 24.2609 31.9074 24.1783 32.0754 24.124C32.2435 24.0698 32.4228 24.0448 32.6025 24.0508Z" fill="#FBD846"/>
<path d="M20.4707 26.6098C20.2552 26.7934 20.1326 27.0412 20.1291 27.3004C20.1289 27.366 20.1371 27.4314 20.1535 27.4955C20.1678 27.5584 20.1903 27.6198 20.2206 27.6785C20.2485 27.7394 20.2847 27.7974 20.3284 27.8512C20.3695 27.9048 20.4172 27.9546 20.4707 27.9997C20.5249 28.0458 20.5841 28.0874 20.6476 28.124C20.7118 28.1594 20.7799 28.1895 20.851 28.2138C20.922 28.2388 20.9955 28.2584 21.0706 28.2725C21.1457 28.2843 21.2219 28.29 21.2983 28.2897C21.6071 28.2888 21.903 28.1846 22.1219 27.9997C22.1761 27.9542 22.2251 27.9045 22.2683 27.8512C22.309 27.7959 22.345 27.7382 22.3761 27.6785C22.403 27.6189 22.4247 27.5578 22.4412 27.4955C22.4568 27.4313 22.4643 27.3659 22.4635 27.3004C22.4618 27.1052 22.3921 26.9148 22.2632 26.7532C22.1343 26.5915 21.9519 26.4659 21.7391 26.392C21.5262 26.3182 21.2924 26.2995 21.0671 26.3382C20.8418 26.377 20.635 26.4714 20.4727 26.6098H20.4707Z" fill="#FBD846"/>
<path d="M46.0122 27.8584C46.0559 27.9113 46.1049 27.961 46.1586 28.0069C46.2799 28.1108 46.427 28.1904 46.5891 28.2401C46.7512 28.2897 46.9243 28.3081 47.0959 28.2939C47.2674 28.2797 47.433 28.2332 47.5808 28.1579C47.7285 28.0826 47.8547 27.9802 47.9501 27.8584C47.9938 27.8046 48.03 27.7466 48.0579 27.6857C48.0882 27.627 48.1107 27.5656 48.125 27.5027C48.1411 27.4397 48.1493 27.3755 48.1494 27.311C48.1559 27.1775 48.1306 27.0443 48.075 26.9193C48.0193 26.7943 47.9345 26.6801 47.8256 26.5837C47.7166 26.4872 47.5858 26.4105 47.4411 26.3581C47.2963 26.3056 47.1405 26.2786 46.9832 26.2786C46.8258 26.2786 46.67 26.3056 46.5253 26.3581C46.3805 26.4105 46.2497 26.4872 46.1408 26.5837C46.0318 26.6801 45.947 26.7943 45.8913 26.9193C45.8357 27.0443 45.8104 27.1775 45.817 27.311C45.8174 27.3754 45.8249 27.4395 45.8393 27.5027C45.8555 27.5652 45.878 27.6264 45.9064 27.6857C45.9361 27.7456 45.9714 27.8034 46.0122 27.8584Z" fill="#FBD846"/>
<path d="M75.4342 42.8597C74.3456 42.1333 72.9756 41.7803 71.5952 41.8705C70.2147 41.9606 68.9244 42.4874 67.9795 43.3466L60.604 50.1166C60.4927 50.2108 60.405 50.3232 60.3462 50.447C60.2873 50.5708 60.2585 50.7034 60.2615 50.8368C60.2644 50.9703 60.2991 51.1018 60.3635 51.2236C60.4278 51.3454 60.5204 51.4549 60.6358 51.5456C60.7512 51.6362 60.887 51.7061 61.035 51.7511C61.183 51.7961 61.3401 51.8153 61.4971 51.8074C61.654 51.7996 61.8075 51.7649 61.9482 51.7055C62.089 51.6461 62.2141 51.5631 62.3162 51.4616L69.6917 44.6916C70.2356 44.1966 70.9787 43.8931 71.7738 43.8413C72.5688 43.7895 73.3578 43.9931 73.9843 44.4119C74.3129 44.6335 74.5864 44.9083 74.7888 45.2204C74.9912 45.5325 75.1185 45.8756 75.1634 46.2299C75.2082 46.5841 75.1697 46.9424 75.05 47.2839C74.9303 47.6254 74.7319 47.9432 74.4663 48.219L61.6269 61.5517C60.6944 62.5227 59.3661 63.1606 57.9056 63.3388L33.0524 66.3931C31.7899 66.5513 30.5872 66.9541 29.5375 67.5703C28.4877 68.1865 27.619 68.9995 26.9987 69.9464L26.3195 70.9824H3.45708L15.3001 56.1216C16.9948 53.9791 19.3475 52.271 22.1035 51.1824C24.8595 50.0937 27.9138 49.6661 30.9355 49.9456C32.9395 50.1222 34.9132 50.4923 36.8184 51.0489C38.1127 51.4418 39.4762 51.645 40.8508 51.6498H52.7365C53.6476 51.6507 54.5211 51.9584 55.1653 52.5054C55.8096 53.0524 56.172 53.7941 56.1731 54.5677C56.172 55.4027 55.7809 56.2032 55.0855 56.7936C54.3902 57.384 53.4474 57.7161 52.464 57.717H41.5747C39.7923 57.7168 38.0659 58.2457 36.6943 59.2122L34.1362 61.0148C33.9074 61.185 33.7658 61.4243 33.7417 61.6818C33.7176 61.9393 33.8129 62.1946 34.0072 62.3933C34.2015 62.592 34.4795 62.7185 34.782 62.7458C35.0845 62.7731 35.3876 62.699 35.6268 62.5394L38.1828 60.7368C39.1331 60.0681 40.3283 59.7017 41.5625 59.7008H52.4599C54.0616 59.699 55.597 59.158 56.7295 58.1964C57.862 57.2348 58.4992 55.9311 58.5014 54.5712C58.4992 53.2726 57.8908 52.0278 56.8093 51.1095C55.7279 50.1913 54.2618 49.6747 52.7324 49.6728H40.8508C39.7415 49.6677 38.6413 49.5025 37.5972 49.1842C35.524 48.5754 33.3755 48.1699 31.1938 47.9756C27.7497 47.6554 24.2681 48.1415 21.126 49.3811C17.9839 50.6207 15.3012 52.5665 13.3683 55.008L0.292984 71.4106C0.171842 71.5596 0.101121 71.734 0.0885013 71.9148C0.075882 72.0956 0.121847 72.2759 0.221405 72.436C0.320962 72.5962 0.470305 72.7301 0.653212 72.8233C0.836118 72.9165 1.04559 72.9653 1.25889 72.9645H27.0068C27.2154 72.9633 27.4198 72.9146 27.5986 72.8235C27.7774 72.7324 27.9242 72.6022 28.0236 72.4465L29.0403 70.8926C29.4864 70.2125 30.1106 69.6287 30.8648 69.1862C31.6191 68.7437 32.483 68.4544 33.3899 68.3407L58.2492 65.2984C60.2873 65.0497 62.141 64.1598 63.4428 62.8053L76.2822 49.4725C76.7447 48.9939 77.0903 48.4418 77.2988 47.8485C77.5073 47.2552 77.5745 46.6326 77.4965 46.017C77.4185 45.4013 77.1969 44.8051 76.8446 44.263C76.4922 43.7209 76.0162 43.2439 75.4444 42.8597H75.4342Z" fill="black"/>
</svg>
