<svg width="22" height="11" viewBox="0 0 22 11" fill="none" xmlns="http://www.w3.org/2000/svg">
<path d="M21.0242 9.24739C20.9986 9.20056 20.9748 9.16171 20.9526 9.13058C20.5859 8.5698 19.8851 7.88147 18.8507 7.06541L18.8288 7.04673L18.8179 7.03756L18.8068 7.02817H18.7957C18.3263 6.64817 18.029 6.39267 17.9045 6.26185C17.6767 6.01267 17.6256 5.76044 17.7501 5.50487C17.8381 5.31177 18.1685 4.90399 18.7406 4.28096C19.0415 3.95077 19.2798 3.68613 19.4558 3.48676C20.7251 2.05395 21.2754 1.13836 21.1066 0.739644L21.041 0.646469C20.997 0.590374 20.8833 0.539057 20.7001 0.492257C20.5165 0.445555 20.2818 0.437831 19.9956 0.468955L16.8263 0.487544C16.7749 0.472097 16.7016 0.473537 16.6061 0.492257C16.5107 0.510977 16.463 0.52037 16.463 0.52037L16.4078 0.54377L16.364 0.571883C16.3273 0.590472 16.287 0.623167 16.2429 0.669902C16.1991 0.716474 16.1624 0.771128 16.1332 0.833408C15.7881 1.58716 15.3958 2.28795 14.9555 2.93576C14.684 3.32204 14.4347 3.65681 14.207 3.94026C13.9797 4.22362 13.7889 4.43239 13.635 4.56621C13.4808 4.70016 13.3416 4.80748 13.2167 4.88854C13.0919 4.96964 12.9967 5.00391 12.9307 4.99137C12.8646 4.97884 12.8024 4.9664 12.7434 4.95396C12.6408 4.89787 12.5582 4.82158 12.496 4.72504C12.4334 4.62849 12.3913 4.50697 12.3693 4.36058C12.3474 4.21409 12.3345 4.08809 12.3308 3.98216C12.3274 3.87635 12.3289 3.72668 12.3364 3.53359C12.344 3.3404 12.3474 3.20969 12.3474 3.14116C12.3474 2.90441 12.3529 2.64746 12.3638 2.37026C12.3749 2.09306 12.3839 1.87342 12.3914 1.71162C12.3989 1.54965 12.4023 1.37829 12.4023 1.19763C12.4023 1.01698 12.3894 0.8753 12.3638 0.77247C12.3385 0.669771 12.2997 0.570083 12.2485 0.473439C12.1971 0.376893 12.1218 0.302209 12.0229 0.24919C11.9239 0.196237 11.8008 0.154215 11.6543 0.122993C11.2654 0.0482758 10.7702 0.00785734 10.1685 0.00157366C8.80399 -0.0108628 7.92722 0.0639521 7.53838 0.225921C7.38432 0.294354 7.2449 0.387856 7.12025 0.506133C6.98815 0.643229 6.96973 0.718044 7.06509 0.73035C7.50535 0.786347 7.81702 0.9203 8.00045 1.13208L8.06656 1.2443C8.11797 1.32527 8.16932 1.46862 8.2207 1.67415C8.272 1.87967 8.30511 2.10703 8.31968 2.35609C8.3563 2.8109 8.3563 3.20023 8.31968 3.5241C8.28295 3.8481 8.24826 4.10033 8.21515 4.28099C8.18204 4.46165 8.13254 4.60804 8.06656 4.72013C8.00045 4.83225 7.95647 4.90078 7.93442 4.92566C7.91242 4.95053 7.89407 4.96621 7.8795 4.97236C7.78414 5.00338 7.68496 5.01919 7.58232 5.01919C7.47952 5.01919 7.35487 4.97553 7.20817 4.88828C7.0615 4.80103 6.90929 4.68118 6.75153 4.52854C6.59376 4.37587 6.41584 4.16252 6.21768 3.88846C6.01968 3.6144 5.81424 3.29049 5.60147 2.91674L5.42544 2.64569C5.31539 2.47132 5.16507 2.21742 4.97431 1.88422C4.78343 1.55089 4.61472 1.22846 4.46806 0.916995C4.40944 0.786183 4.32136 0.686593 4.20399 0.618062L4.14891 0.589949C4.11229 0.565076 4.05351 0.538665 3.97288 0.510519C3.89213 0.482406 3.80787 0.462246 3.71976 0.449842L0.704443 0.468432C0.396316 0.468432 0.18725 0.527701 0.0771665 0.646076L0.0331099 0.702073C0.0111009 0.733262 0 0.783074 0 0.851638C0 0.920169 0.022009 1.00428 0.0660656 1.10387C0.506246 1.98228 0.984933 2.82943 1.50213 3.64545C2.01932 4.46148 2.46875 5.11881 2.85015 5.61686C3.23163 6.11527 3.62046 6.58566 4.01667 7.02781C4.41287 7.47012 4.67512 7.75357 4.80344 7.8781C4.93191 8.00286 5.03282 8.09613 5.10617 8.15841L5.38134 8.38263C5.55741 8.53216 5.81597 8.71125 6.15713 8.91988C6.49837 9.12865 6.87614 9.33418 7.29065 9.5368C7.70524 9.73909 8.18755 9.90416 8.73785 10.0318C9.28808 10.1596 9.82362 10.2109 10.3445 10.1862H11.6101C11.8668 10.1674 12.0613 10.0988 12.1934 9.98055L12.2372 9.93372C12.2667 9.89654 12.2942 9.83877 12.3197 9.76105C12.3454 9.68319 12.3582 9.59741 12.3582 9.5041C12.3507 9.23629 12.3747 8.99493 12.4296 8.78004C12.4844 8.56522 12.547 8.40325 12.6169 8.29417C12.6868 8.18518 12.7656 8.09322 12.8534 8.01867C12.9413 7.94395 13.004 7.89869 13.0408 7.88311C13.0773 7.86743 13.1065 7.8568 13.1285 7.85042C13.3046 7.8006 13.5118 7.84884 13.7505 7.99536C13.9889 8.14176 14.2126 8.32251 14.4218 8.53733C14.6309 8.75235 14.8822 8.99359 15.1756 9.2614C15.4692 9.5293 15.7259 9.72845 15.9459 9.85946L16.1659 9.97158C16.3128 10.0464 16.5036 10.1149 16.7384 10.1772C16.9728 10.2395 17.1782 10.255 17.3545 10.2239L20.1716 10.1866C20.4503 10.1866 20.6671 10.1474 20.8209 10.0697C20.975 9.99184 21.0665 9.90606 21.0961 9.81276C21.1255 9.71935 21.1271 9.61338 21.1016 9.49491C21.0755 9.37673 21.0498 9.29409 21.0242 9.24739Z" fill="#99CB38"/>
</svg>
