<svg width="32" height="27" viewBox="0 0 32 27" fill="none" xmlns="http://www.w3.org/2000/svg">
<path d="M31.2157 25.6831C27.9721 25.6831 24.72 25.6831 21.4764 25.6831C16.0879 25.6831 10.6993 25.6831 5.31073 25.6831C3.75383 25.6831 2.20559 25.6831 0.648704 25.6831C0.864939 25.8275 1.08117 25.9719 1.29741 26.1164C1.29741 24.2678 1.29741 22.4193 1.29741 20.5708C1.29741 16.8737 1.29741 13.1767 1.29741 9.47964C1.29741 6.71263 1.29741 3.94562 1.29741 1.18438C1.29741 0.947542 1.29741 0.716477 1.29741 0.479635C1.08117 0.624051 0.864939 0.768467 0.648704 0.912883C3.89223 0.912883 7.1444 0.912883 10.3879 0.912883C15.7765 0.912883 21.1651 0.912883 26.5536 0.912883C28.1105 0.912883 29.6588 0.912883 31.2157 0.912883C30.9994 0.768467 30.7832 0.624051 30.5669 0.479635C30.5669 2.32816 30.5669 4.17668 30.5669 6.02521C30.5669 9.72226 30.5669 13.4193 30.5669 17.1164C30.5669 19.8834 30.5669 22.6504 30.5669 25.4116C30.5669 25.6485 30.5669 25.8795 30.5669 26.1164C30.5669 26.6767 31.8644 26.6767 31.8644 26.1164C31.8644 24.2678 31.8644 22.4193 31.8644 20.5708C31.8644 16.8737 31.8644 13.1767 31.8644 9.47964C31.8644 6.71263 31.8644 3.94562 31.8644 1.18438C31.8644 0.947542 31.8644 0.716477 31.8644 0.479635C31.8644 0.242792 31.5703 0.0463867 31.2157 0.0463867C27.9721 0.0463867 24.72 0.0463867 21.4764 0.0463867C16.0879 0.0463867 10.6993 0.0463867 5.31073 0.0463867C3.75383 0.0463867 2.20559 0.0463867 0.648704 0.0463867C0.294079 0.0463867 0 0.242792 0 0.479635C0 2.32816 0 4.17668 0 6.02521C0 9.72226 0 13.4193 0 17.1164C0 19.8834 0 22.6504 0 25.4116C0 25.6485 0 25.8795 0 26.1164C0 26.3532 0.294079 26.5496 0.648704 26.5496C3.89223 26.5496 7.1444 26.5496 10.3879 26.5496C15.7765 26.5496 21.1651 26.5496 26.5536 26.5496C28.1105 26.5496 29.6588 26.5496 31.2157 26.5496C32.0546 26.5496 32.0546 25.6831 31.2157 25.6831Z" fill="#333333"/>
<path d="M15.3492 0.46927C15.3492 2.32937 15.3492 4.18948 15.3492 6.04958C15.3492 9.76979 15.3492 13.49 15.3492 17.2102C15.3492 19.9946 15.3492 22.7789 15.3492 25.5574C15.3492 25.7958 15.3492 26.0283 15.3492 26.2666C15.3492 26.8304 16.6522 26.8304 16.6522 26.2666C16.6522 24.4065 16.6522 22.5464 16.6522 20.6863C16.6522 16.9661 16.6522 13.2459 16.6522 9.52565C16.6522 6.74131 16.6522 3.95697 16.6522 1.17843C16.6522 0.940109 16.6522 0.707596 16.6522 0.46927C16.6522 -0.0945744 15.3492 -0.0945744 15.3492 0.46927Z" fill="#FBD846"/>
<path d="M0.651102 1.11362C3.90843 1.11362 7.17445 1.11362 10.4318 1.11362C15.8433 1.11362 21.2548 1.11362 26.6663 1.11362C28.2298 1.11362 29.7847 1.11362 31.3482 1.11362C32.1907 1.11362 32.1907 0.00732422 31.3482 0.00732422C28.0908 0.00732422 24.8248 0.00732422 21.5675 0.00732422C16.156 0.00732422 10.7445 0.00732422 5.33297 0.00732422C3.76945 0.00732422 2.21462 0.00732422 0.651102 0.00732422C-0.19146 0.00732422 -0.19146 1.11362 0.651102 1.11362Z" fill="#333333"/>
<path d="M31.3485 25.5996C28.0912 25.5996 24.8252 25.5996 21.5679 25.5996C16.1564 25.5996 10.7448 25.5996 5.33333 25.5996C3.76981 25.5996 2.21498 25.5996 0.651466 25.5996C0.868621 25.784 1.08578 25.9684 1.30293 26.1527C1.30293 23.3428 1.30293 20.5402 1.30293 17.7302C1.30293 13.1723 1.30293 8.61433 1.30293 4.05641C1.30293 2.89111 1.30293 1.72582 1.30293 0.553146C1.08578 0.737528 0.868621 0.92191 0.651466 1.10629C3.90879 1.10629 7.17481 1.10629 10.4321 1.10629C15.8436 1.10629 21.2552 1.10629 26.6667 1.10629C28.2302 1.10629 29.785 1.10629 31.3485 1.10629C31.1314 0.92191 30.9142 0.737528 30.6971 0.553146C30.6971 3.36313 30.6971 6.16573 30.6971 8.97572C30.6971 13.5336 30.6971 18.0916 30.6971 22.6495C30.6971 23.8148 30.6971 24.9801 30.6971 26.1527C30.6971 26.8681 32 26.8681 32 26.1527C32 23.3428 32 20.5402 32 17.7302C32 13.1723 32 8.61433 32 4.05641C32 2.89111 32 1.72582 32 0.553146C32 0.25076 31.7047 0 31.3485 0C28.0912 0 24.8252 0 21.5679 0C16.1564 0 10.7448 0 5.33333 0C3.76981 0 2.21498 0 0.651466 0C0.295331 0 0 0.25076 0 0.553146C0 3.36313 0 6.16573 0 8.97572C0 13.5336 0 18.0916 0 22.6495C0 23.8148 0 24.9801 0 26.1527C0 26.4551 0.295331 26.7059 0.651466 26.7059C3.90879 26.7059 7.17481 26.7059 10.4321 26.7059C15.8436 26.7059 21.2552 26.7059 26.6667 26.7059C28.2302 26.7059 29.785 26.7059 31.3485 26.7059C32.1911 26.7059 32.1911 25.5996 31.3485 25.5996Z" fill="#333333"/>
<path d="M17.6406 12.1765C17.6406 12.9657 17.6406 13.7475 17.6406 14.5366C17.6406 15.252 18.9436 15.252 18.9436 14.5366C18.9436 13.7475 18.9436 12.9657 18.9436 12.1765C18.9436 11.4685 17.6406 11.4685 17.6406 12.1765Z" fill="#FBD846"/>
<path d="M13.0557 12.1765C13.0557 12.9657 13.0557 13.7475 13.0557 14.5366C13.0557 15.252 14.3586 15.252 14.3586 14.5366C14.3586 13.7475 14.3586 12.9657 14.3586 12.1765C14.3586 11.4685 13.0557 11.4685 13.0557 12.1765Z" fill="#FBD846"/>
</svg>
