<svg width="33" height="28" viewBox="0 0 33 28" fill="none" xmlns="http://www.w3.org/2000/svg">
<path d="M18.2433 13.6122C18.2433 12.7652 17.5565 12.0581 16.6336 11.8545V7.23391C16.6336 6.98197 16.3932 6.77832 16.0971 6.77832C15.8009 6.77832 15.5605 6.98197 15.5605 7.23391V11.8545C14.8098 12.0203 14.2223 12.5192 14.027 13.1566H10.1948C9.89862 13.1566 9.65823 13.3602 9.65823 13.6122C9.65823 13.8641 9.89862 14.0677 10.1948 14.0677H14.027C14.2668 14.8518 15.1001 15.4345 16.0971 15.4345C17.2807 15.4345 18.2433 14.6172 18.2433 13.6122ZM16.0971 14.5233C15.5052 14.5233 15.0239 14.1147 15.0239 13.6122C15.0239 13.1096 15.5052 12.701 16.0971 12.701C16.6889 12.701 17.1702 13.1096 17.1702 13.6122C17.1702 14.1147 16.6889 14.5233 16.0971 14.5233Z" fill="black"/>
<path d="M16.097 4.50056C16.3932 4.50056 16.6336 4.29691 16.6336 4.04497V3.58938C16.6336 3.33744 16.3932 3.13379 16.097 3.13379C15.8009 3.13379 15.5605 3.33744 15.5605 3.58938V4.04497C15.5605 4.29691 15.8009 4.50056 16.097 4.50056Z" fill="black"/>
<path d="M15.5605 23.1797V23.6353C15.5605 23.8872 15.8009 24.0909 16.097 24.0909C16.3932 24.0909 16.6336 23.8872 16.6336 23.6353V23.1797C16.6336 22.9278 16.3932 22.7241 16.097 22.7241C15.8009 22.7241 15.5605 22.9278 15.5605 23.1797Z" fill="black"/>
<path d="M27.9016 14.0679C28.1977 14.0679 28.4381 13.8643 28.4381 13.6123C28.4381 13.3604 28.1977 13.1567 27.9016 13.1567H27.365C27.0688 13.1567 26.8284 13.3604 26.8284 13.6123C26.8284 13.8643 27.0688 14.0679 27.365 14.0679H27.9016Z" fill="black"/>
<path d="M4.29255 13.1567C3.99636 13.1567 3.75598 13.3604 3.75598 13.6123C3.75598 13.8643 3.99636 14.0679 4.29255 14.0679H4.82912C5.1253 14.0679 5.36569 13.8643 5.36569 13.6123C5.36569 13.3604 5.1253 13.1567 4.82912 13.1567H4.29255Z" fill="black"/>
<path d="M24.065 7.30224C24.2024 7.30224 24.3397 7.25759 24.4444 7.16875L24.8237 6.84665C25.0335 6.66852 25.0335 6.38058 24.8237 6.20245C24.6139 6.02431 24.2748 6.02431 24.065 6.20245L23.6857 6.52455C23.4759 6.70269 23.4759 6.99062 23.6857 7.16875C23.7903 7.25805 23.9276 7.30224 24.065 7.30224Z" fill="#FBD846"/>
<path d="M7.74997 20.055L7.37062 20.3771C7.16082 20.5552 7.16082 20.8432 7.37062 21.0213C7.47525 21.1101 7.61261 21.1548 7.74997 21.1548C7.88734 21.1548 8.0247 21.1101 8.12933 21.0213L8.50868 20.6992C8.71848 20.5211 8.71848 20.2331 8.50868 20.055C8.29888 19.8769 7.95924 19.8769 7.74997 20.055Z" fill="#FBD846"/>
<path d="M8.50868 6.52455L8.12933 6.20245C7.91953 6.02431 7.58042 6.02431 7.37062 6.20245C7.16082 6.38058 7.16082 6.66852 7.37062 6.84665L7.74997 7.16875C7.85461 7.25759 7.99197 7.30224 8.12933 7.30224C8.26669 7.30224 8.40405 7.25759 8.50868 7.16875C8.71848 6.99107 8.71848 6.70269 8.50868 6.52455Z" fill="#FBD846"/>
<path d="M16.097 0C7.22114 0 0 6.13132 0 13.6677C0 21.204 7.22114 27.3353 16.097 27.3353C18.0158 27.3353 19.8954 27.0506 21.6849 26.4884C21.9628 26.4014 22.1045 26.139 22.002 25.9034C21.899 25.6665 21.591 25.5462 21.3125 25.6342C19.6427 26.1581 17.8881 26.4242 16.097 26.4242C7.81297 26.4242 1.07314 20.7015 1.07314 13.6677C1.07314 6.63383 7.81297 0.911178 16.097 0.911178C24.3811 0.911178 31.121 6.63383 31.121 13.6677C31.121 15.1893 30.8076 16.6787 30.19 18.0955C30.0875 18.332 30.2292 18.594 30.5071 18.681C30.7851 18.7698 31.0936 18.6482 31.1966 18.4122C31.8587 16.8937 32.1941 15.2978 32.1941 13.6677C32.1941 6.13132 24.973 0 16.097 0Z" fill="black"/>
<path d="M26.8284 18.7248V18.2232C26.8284 17.9712 26.588 17.7676 26.2918 17.7676C25.9957 17.7676 25.7553 17.9712 25.7553 18.2232V18.7266C25.1699 18.8277 24.6365 19.0915 24.2432 19.4865C23.9154 19.8155 23.7635 20.2364 23.8172 20.6724C23.8719 21.1184 24.1424 21.5321 24.5593 21.8073L25.7553 22.5968V25.0743C25.1323 24.8857 24.6821 24.3846 24.6821 23.7914C24.6821 23.5394 24.4418 23.3358 24.1456 23.3358C23.8494 23.3358 23.609 23.5394 23.609 23.7914C23.609 24.8912 24.5324 25.8115 25.7553 26.0233V26.4238C25.7553 26.6757 25.9957 26.8794 26.2918 26.8794C26.588 26.8794 26.8284 26.6757 26.8284 26.4238V26.0219C27.4138 25.9208 27.9472 25.657 28.341 25.262C28.6688 24.9322 28.8202 24.5112 28.7665 24.0752C28.7112 23.6296 28.4413 23.2164 28.0244 22.9417L26.8284 22.1513V19.6738C27.4514 19.8624 27.9016 20.3635 27.9016 20.9567C27.9016 21.2086 28.1419 21.4123 28.4381 21.4123C28.7343 21.4123 28.9747 21.2086 28.9747 20.9567C28.9747 19.8569 28.0513 18.9366 26.8284 18.7248ZM27.3655 23.6606C27.5528 23.7841 27.6746 23.9704 27.6993 24.17C27.7223 24.3568 27.659 24.5358 27.5217 24.6734C27.3349 24.8606 27.0935 24.9919 26.8284 25.072V23.3053L27.3655 23.6606ZM25.2182 21.0879C25.0304 20.964 24.9091 20.7777 24.8844 20.5777C24.8619 20.3913 24.9247 20.2127 25.062 20.0747C25.2488 19.8874 25.4902 19.7562 25.7553 19.676V21.4424L25.2182 21.0879Z" fill="#FBD846"/>
</svg>
