<svg width="32" height="27" viewBox="0 0 32 27" fill="none" xmlns="http://www.w3.org/2000/svg">
<path d="M31.2285 2.15174H25.3104L18.0142 0.130571C17.576 0.00884441 17.1114 -0.0284162 16.6542 0.0215C16.197 0.0714163 15.7586 0.207254 15.371 0.419128L10.9747 2.81721C10.9272 2.84304 10.8863 2.87655 10.8541 2.91583C10.8219 2.95511 10.7992 2.99938 10.7871 3.04613C10.7751 3.09287 10.774 3.14117 10.784 3.18826C10.794 3.23535 10.8147 3.28032 10.8452 3.32059C10.8756 3.36087 10.9151 3.39566 10.9613 3.42298C11.0076 3.4503 11.0597 3.46962 11.1148 3.47983C11.1698 3.49004 11.2267 3.49094 11.2822 3.48249C11.3376 3.47403 11.3906 3.45638 11.438 3.43055L15.8343 1.03565C16.1151 0.882558 16.4326 0.784625 16.7636 0.748998C17.0946 0.71337 17.4308 0.740948 17.7477 0.829719L25.1113 2.8636C25.154 2.87554 25.1988 2.88155 25.2438 2.8814H30.8004V9.00276H27.6077C27.5291 9.00284 27.4519 9.02126 27.3847 9.056C27.3176 9.09074 27.2629 9.14048 27.2267 9.19979C26.7458 9.89047 26.0114 10.4281 25.136 10.7303V9.09238C25.8239 8.84323 26.5582 8.40976 27.0268 7.65404C27.0532 7.61164 27.0695 7.56524 27.0748 7.51749C27.0801 7.46974 27.0742 7.42158 27.0576 7.37575C27.0409 7.32992 27.0138 7.28732 26.9778 7.25039C26.9418 7.21346 26.8975 7.18292 26.8476 7.1605C26.7976 7.13809 26.743 7.12425 26.6867 7.11978C26.6305 7.1153 26.5738 7.12027 26.5198 7.1344C26.4658 7.14854 26.4157 7.17156 26.3722 7.20216C26.3287 7.23276 26.2927 7.27033 26.2663 7.31273C25.4504 8.6373 23.4218 8.69641 23.4105 8.69641C20.6933 8.69641 19.9088 7.08582 19.8773 7.01909C19.8462 6.95033 19.7913 6.89118 19.7198 6.84943C19.6483 6.80768 19.5636 6.78529 19.4768 6.78519H15.4443C15.2914 6.78851 15.1393 6.7658 14.9969 6.71841C14.8544 6.67101 14.7246 6.59989 14.6151 6.50923C14.5056 6.41857 14.4185 6.31021 14.3591 6.19054C14.2996 6.07087 14.269 5.9423 14.269 5.81242C14.269 5.68254 14.2996 5.55397 14.3591 5.4343C14.4185 5.31463 14.5056 5.20627 14.6151 5.11561C14.7246 5.02495 14.8544 4.95383 14.9969 4.90643C15.1393 4.85904 15.2914 4.83633 15.4443 4.83965H20.2576C20.3155 4.8417 20.3733 4.8338 20.4275 4.8164C20.4816 4.79901 20.5311 4.77249 20.5729 4.73844C20.6148 4.70439 20.648 4.66351 20.6708 4.61826C20.6935 4.57302 20.7052 4.52433 20.7052 4.47514C20.7052 4.42595 20.6935 4.37727 20.6708 4.33202C20.648 4.28677 20.6148 4.24589 20.5729 4.21184C20.5311 4.17779 20.4816 4.15127 20.4275 4.13388C20.3733 4.11649 20.3155 4.10858 20.2576 4.11063H15.4443C15.1779 4.10626 14.9131 4.14704 14.6654 4.2306C14.4177 4.31416 14.1921 4.43882 14.0019 4.59728C13.8116 4.75573 13.6605 4.94482 13.5573 5.15346C13.4541 5.36211 13.401 5.58613 13.401 5.81242C13.401 6.03871 13.4541 6.26273 13.5573 6.47138C13.6605 6.68002 13.8116 6.86911 14.0019 7.02757C14.1921 7.18602 14.4177 7.31068 14.6654 7.39424C14.9131 7.4778 15.1779 7.51858 15.4443 7.51421H19.2081C19.5667 8.07289 20.715 9.42543 23.4195 9.42543C23.7086 9.41455 23.9958 9.38071 24.2774 9.32437V14.7269C24.2772 14.8694 24.2104 15.0061 24.0917 15.1069C23.973 15.2077 23.812 15.2644 23.6441 15.2646H1.49189C1.32418 15.2644 1.16336 15.2079 1.04457 15.1074C0.925769 15.0069 0.858644 14.8705 0.857853 14.7281V5.37736C0.858051 5.2348 0.924835 5.09813 1.04356 4.99733C1.16228 4.89652 1.32324 4.83982 1.49114 4.83965H12.4374C12.4953 4.8417 12.553 4.8338 12.6072 4.8164C12.6614 4.79901 12.7109 4.77249 12.7527 4.73844C12.7945 4.70439 12.8278 4.66351 12.8505 4.61826C12.8733 4.57302 12.885 4.52433 12.885 4.47514C12.885 4.42595 12.8733 4.37727 12.8505 4.33202C12.8278 4.28677 12.7945 4.24589 12.7527 4.21184C12.7109 4.17779 12.6614 4.15127 12.6072 4.13388C12.553 4.11649 12.4953 4.10858 12.4374 4.11063H1.49189C1.09664 4.1118 0.717973 4.24564 0.438489 4.48294C0.159005 4.72025 0.00138096 5.04176 0 5.37736V14.7281C0.00138096 15.0637 0.159005 15.3853 0.438489 15.6226C0.717973 15.8599 1.09664 15.9937 1.49189 15.9949H23.6441C24.0393 15.9937 24.418 15.8599 24.6975 15.6226C24.977 15.3853 25.1346 15.0637 25.136 14.7281V11.5025C26.675 11.0862 27.5366 10.1436 27.851 9.73115H31.2285C31.3424 9.73115 31.4515 9.6928 31.5321 9.62451C31.6126 9.55623 31.658 9.4636 31.6582 9.36695V2.51657C31.6582 2.41981 31.6129 2.32702 31.5324 2.2586C31.4518 2.19018 31.3425 2.15174 31.2285 2.15174Z" fill="black"/>
<path d="M2.91029 11.9726V8.13049C3.36192 8.05679 3.77715 7.86981 4.10234 7.5937C4.42753 7.31758 4.64774 6.96502 4.73454 6.58156H12.0652C12.176 6.57763 12.2807 6.53751 12.3574 6.46958C12.4341 6.40165 12.477 6.31117 12.477 6.21705C12.477 6.12293 12.4341 6.03245 12.3574 5.96452C12.2807 5.89659 12.176 5.85647 12.0652 5.85254H4.34604C4.23208 5.85254 4.12279 5.89098 4.04221 5.95939C3.96163 6.02781 3.91636 6.12061 3.91636 6.21737C3.91666 6.37759 3.87977 6.5363 3.8078 6.68442C3.73584 6.83253 3.63021 6.96716 3.49695 7.08061C3.36369 7.19405 3.20541 7.28409 3.03115 7.34558C2.85689 7.40707 2.67007 7.4388 2.48137 7.43897C2.36858 7.43963 2.26061 7.47793 2.18079 7.54559C2.10096 7.61325 2.05567 7.70485 2.05469 7.80062V12.3031C2.05469 12.351 2.06581 12.3984 2.08741 12.4426C2.10901 12.4869 2.14067 12.5271 2.18058 12.5609C2.22049 12.5947 2.26786 12.6215 2.31999 12.6398C2.37212 12.658 2.42797 12.6674 2.48436 12.6673C2.86489 12.6678 3.22966 12.7964 3.49866 13.025C3.76767 13.2535 3.91896 13.5633 3.91936 13.8864C3.91936 13.9343 3.93048 13.9817 3.95208 14.0259C3.97368 14.0701 4.00534 14.1103 4.04525 14.1441C4.08516 14.178 4.13253 14.2048 4.18466 14.223C4.23679 14.2413 4.29264 14.2507 4.34903 14.2506H20.7882C20.8446 14.2507 20.9005 14.2413 20.9526 14.223C21.0047 14.2048 21.0521 14.178 21.092 14.1441C21.1319 14.1103 21.1636 14.0701 21.1852 14.0259C21.2068 13.9817 21.2179 13.9343 21.2179 13.8864C21.2183 13.5633 21.3696 13.2535 21.6386 13.025C21.9076 12.7964 22.2724 12.6678 22.6529 12.6673C22.7093 12.6674 22.7651 12.658 22.8173 12.6398C22.8694 12.6215 22.9168 12.5947 22.9567 12.5609C22.9966 12.5271 23.0282 12.4869 23.0498 12.4426C23.0714 12.3984 23.0826 12.351 23.0826 12.3031V10.6557C23.085 10.6065 23.0757 10.5575 23.0552 10.5115C23.0347 10.4655 23.0035 10.4234 22.9634 10.3879C22.9233 10.3524 22.8751 10.3242 22.8218 10.3049C22.7685 10.2856 22.7112 10.2756 22.6533 10.2756C22.5953 10.2756 22.538 10.2856 22.4847 10.3049C22.4314 10.3242 22.3833 10.3524 22.3432 10.3879C22.3031 10.4234 22.2718 10.4655 22.2513 10.5115C22.2309 10.5575 22.2215 10.6065 22.224 10.6557V11.9726C21.7724 12.0465 21.3573 12.2335 21.0321 12.5096C20.707 12.7857 20.4867 13.1382 20.3997 13.5216H4.73454C4.64755 13.1382 4.42727 12.7857 4.10212 12.5096C3.77696 12.2335 3.36184 12.0465 2.91029 11.9726Z" fill="#FBD846"/>
<path d="M12.0011 8.85337H13.0341C13.1449 8.84944 13.2496 8.80932 13.3263 8.74139C13.403 8.67346 13.4459 8.58298 13.4459 8.48886C13.4459 8.39474 13.403 8.30426 13.3263 8.23633C13.2496 8.1684 13.1449 8.12828 13.0341 8.12435H12.6965V7.88982C12.699 7.84067 12.6896 7.79161 12.6692 7.7456C12.6487 7.69959 12.6174 7.65756 12.5773 7.62206C12.5372 7.58656 12.4891 7.55831 12.4358 7.53901C12.3825 7.51971 12.3252 7.50977 12.2672 7.50977C12.2093 7.50977 12.152 7.51971 12.0987 7.53901C12.0454 7.55831 11.9972 7.58656 11.9571 7.62206C11.917 7.65756 11.8858 7.69959 11.8653 7.7456C11.8448 7.79161 11.8355 7.84067 11.8379 7.88982V8.13325C11.485 8.15588 11.1568 8.29549 10.9241 8.52191C10.6914 8.74834 10.573 9.0434 10.5945 9.34335C10.6159 9.64329 10.7754 9.92404 11.0387 10.1249C11.3019 10.3258 11.6476 10.4307 12.0011 10.4169H12.5326C12.6632 10.4169 12.7885 10.461 12.8809 10.5394C12.9733 10.6178 13.0252 10.7242 13.0252 10.8351C13.0252 10.9461 12.9733 11.0524 12.8809 11.1309C12.7885 11.2093 12.6632 11.2534 12.5326 11.2534H11.5011C11.4432 11.2513 11.3854 11.2592 11.3312 11.2766C11.277 11.294 11.2275 11.3205 11.1857 11.3546C11.1439 11.3886 11.1107 11.4295 11.0879 11.4747C11.0652 11.52 11.0535 11.5687 11.0535 11.6179C11.0535 11.6671 11.0652 11.7157 11.0879 11.761C11.1107 11.8062 11.1439 11.8471 11.1857 11.8812C11.2275 11.9152 11.277 11.9417 11.3312 11.9591C11.3854 11.9765 11.4432 11.9844 11.5011 11.9824H11.8379V12.2169C11.8426 12.3109 11.8898 12.3998 11.9698 12.465C12.0498 12.5301 12.1564 12.5665 12.2672 12.5665C12.3781 12.5665 12.4847 12.5301 12.5647 12.465C12.6447 12.3998 12.6919 12.3109 12.6965 12.2169V11.9716C13.0497 11.9492 13.3784 11.8096 13.6113 11.5831C13.8443 11.3566 13.9628 11.0613 13.9412 10.7611C13.9197 10.4609 13.7598 10.18 13.4962 9.97916C13.2326 9.77831 12.8864 9.67368 12.5326 9.6879H12.0011C11.935 9.69009 11.869 9.68092 11.8071 9.66094C11.7452 9.64096 11.6887 9.61058 11.641 9.57161C11.5933 9.53265 11.5554 9.48591 11.5294 9.43419C11.5035 9.38247 11.4901 9.32684 11.4901 9.27064C11.4901 9.21443 11.5035 9.1588 11.5294 9.10708C11.5554 9.05536 11.5933 9.00862 11.641 8.96966C11.6887 8.93069 11.7452 8.90031 11.8071 8.88033C11.869 8.86035 11.935 8.85118 12.0011 8.85337Z" fill="#FBD846"/>
<path d="M7.53527 9.79519C7.45593 9.86278 7.41081 9.95401 7.40952 10.0494C7.40946 10.0736 7.41248 10.0977 7.4185 10.1213C7.42376 10.1444 7.43205 10.167 7.4432 10.1886C7.45347 10.211 7.46679 10.2324 7.48287 10.2522C7.49802 10.2719 7.51559 10.2902 7.53527 10.3068C7.55522 10.3238 7.57703 10.3391 7.6004 10.3526C7.62404 10.3656 7.64911 10.3767 7.67526 10.3857C7.70141 10.3949 7.72846 10.4021 7.7561 10.4073C7.78375 10.4116 7.81182 10.4137 7.83994 10.4136C7.95361 10.4133 8.06254 10.3749 8.14311 10.3068C8.16305 10.2901 8.18109 10.2718 8.19701 10.2522C8.21198 10.2318 8.22524 10.2106 8.23668 10.1886C8.24658 10.1667 8.25458 10.1442 8.26063 10.1213C8.26641 10.0976 8.26917 10.0736 8.26887 10.0494C8.26823 9.97757 8.24257 9.90748 8.19511 9.84798C8.14766 9.78847 8.08053 9.74222 8.00218 9.71504C7.92384 9.68786 7.83777 9.68097 7.75482 9.69523C7.67187 9.7095 7.59574 9.74428 7.53602 9.79519H7.53527Z" fill="#FBD846"/>
<path d="M16.9373 10.2549C16.9534 10.2744 16.9715 10.2927 16.9912 10.3095C17.0359 10.3478 17.0901 10.3771 17.1497 10.3954C17.2094 10.4137 17.2731 10.4204 17.3363 10.4152C17.3994 10.41 17.4604 10.3929 17.5148 10.3651C17.5692 10.3374 17.6156 10.2997 17.6507 10.2549C17.6668 10.2351 17.6801 10.2137 17.6904 10.1913C17.7016 10.1697 17.7098 10.1471 17.7151 10.1239C17.721 10.1008 17.7241 10.0771 17.7241 10.0534C17.7265 10.0042 17.7172 9.95519 17.6967 9.90917C17.6762 9.86316 17.645 9.82114 17.6049 9.78564C17.5648 9.75013 17.5166 9.72188 17.4633 9.70259C17.4101 9.68329 17.3527 9.67334 17.2948 9.67334C17.2369 9.67334 17.1795 9.68329 17.1262 9.70259C17.0729 9.72188 17.0248 9.75013 16.9847 9.78564C16.9446 9.82114 16.9134 9.86316 16.8929 9.90917C16.8724 9.95519 16.8631 10.0042 16.8655 10.0534C16.8656 10.0771 16.8684 10.1007 16.8737 10.1239C16.8797 10.147 16.8879 10.1695 16.8984 10.1913C16.9093 10.2134 16.9223 10.2346 16.9373 10.2549Z" fill="#FBD846"/>
<path d="M27.7685 15.777C27.3678 15.5096 26.8634 15.3796 26.3553 15.4128C25.8471 15.446 25.3721 15.6399 25.0243 15.9562L22.3092 18.4484C22.2682 18.4831 22.236 18.5244 22.2143 18.57C22.1926 18.6156 22.182 18.6644 22.1831 18.7135C22.1842 18.7626 22.197 18.811 22.2207 18.8559C22.2443 18.9007 22.2784 18.941 22.3209 18.9744C22.3634 19.0078 22.4134 19.0335 22.4679 19.0501C22.5223 19.0666 22.5802 19.0737 22.638 19.0708C22.6957 19.0679 22.7522 19.0551 22.804 19.0333C22.8559 19.0114 22.9019 18.9808 22.9395 18.9435L25.6545 16.4513C25.8548 16.2691 26.1283 16.1574 26.421 16.1383C26.7137 16.1192 27.0041 16.1942 27.2348 16.3484C27.3557 16.4299 27.4564 16.5311 27.5309 16.646C27.6054 16.7609 27.6523 16.8872 27.6688 17.0176C27.6853 17.148 27.6711 17.2799 27.6271 17.4056C27.583 17.5313 27.51 17.6483 27.4122 17.7498L22.6857 22.6579C22.3425 23.0153 21.8535 23.2501 21.3159 23.3157L12.1669 24.44C11.7022 24.4983 11.2595 24.6466 10.873 24.8734C10.4866 25.1002 10.1668 25.3995 9.93847 25.7481L9.68845 26.1294H1.27236L5.63199 20.6589C6.25583 19.8702 7.12191 19.2414 8.13645 18.8407C9.15099 18.4399 10.2753 18.2825 11.3877 18.3854C12.1254 18.4504 12.852 18.5867 13.5533 18.7916C14.0297 18.9362 14.5317 19.011 15.0377 19.0128H19.413C19.7484 19.0131 20.07 19.1264 20.3071 19.3277C20.5443 19.5291 20.6777 19.8021 20.6781 20.0869C20.6777 20.3943 20.5337 20.6889 20.2777 20.9063C20.0218 21.1236 19.6747 21.2459 19.3127 21.2462H15.3042C14.648 21.2461 14.0125 21.4408 13.5076 21.7966L12.5659 22.4602C12.4817 22.5228 12.4296 22.6109 12.4207 22.7057C12.4118 22.8005 12.4469 22.8945 12.5184 22.9676C12.59 23.0408 12.6923 23.0874 12.8037 23.0974C12.915 23.1075 13.0266 23.0802 13.1146 23.0214L14.0556 22.3579C14.4054 22.1117 14.8453 21.9768 15.2997 21.9765H19.3112C19.9008 21.9758 20.466 21.7767 20.8829 21.4227C21.2998 21.0687 21.5344 20.5888 21.5352 20.0882C21.5344 19.6101 21.3104 19.1519 20.9123 18.8139C20.5142 18.4759 19.9745 18.2857 19.4115 18.285H15.0377C14.6293 18.2831 14.2243 18.2223 13.84 18.1051C13.0768 17.881 12.2859 17.7317 11.4828 17.6602C10.2149 17.5424 8.93327 17.7213 7.77661 18.1776C6.61996 18.6339 5.63239 19.3502 4.92085 20.249L0.107597 26.2871C0.0630026 26.3419 0.0369686 26.4061 0.0323232 26.4727C0.0276778 26.5392 0.0445985 26.6056 0.0812475 26.6646C0.117896 26.7235 0.172872 26.7728 0.240204 26.8071C0.307535 26.8414 0.384647 26.8594 0.463164 26.8591H9.94146C10.0182 26.8587 10.0935 26.8407 10.1593 26.8072C10.2251 26.7737 10.2792 26.7257 10.3157 26.6684L10.69 26.0964C10.8542 25.8461 11.084 25.6311 11.3617 25.4682C11.6393 25.3053 11.9573 25.1989 12.2912 25.157L21.4424 24.0371C22.1926 23.9455 22.875 23.6179 23.3542 23.1193L28.0806 18.2113C28.2509 18.0351 28.3781 17.8318 28.4549 17.6134C28.5316 17.395 28.5564 17.1658 28.5277 16.9392C28.499 16.7126 28.4174 16.4931 28.2877 16.2936C28.158 16.094 27.9827 15.9184 27.7722 15.777H27.7685Z" fill="black"/>
</svg>
