<svg width="27" height="29" viewBox="0 0 27 29" fill="none" xmlns="http://www.w3.org/2000/svg">
<path d="M25.1746 14.9019V26.8735C25.1746 27.4373 24.7184 27.8711 24.1255 27.8711H3.00615C2.41317 27.8711 1.95703 27.4373 1.95703 26.8735V14.9019" stroke="#333333" stroke-width="1.5"/>
<path fill-rule="evenodd" clip-rule="evenodd" d="M26.0877 13.8608C26.0877 14.4247 25.6316 14.8584 25.0386 14.8584H2.04912C1.45614 14.8584 1 14.4247 1 13.8608V9.39314C1 8.82926 1.45614 8.39551 2.04912 8.39551H25.0386C25.6316 8.39551 26.0877 8.82926 26.0877 9.39314V13.8608Z" stroke="#333333" stroke-width="1.5"/>
<path fill-rule="evenodd" clip-rule="evenodd" d="M20.2947 5.2291C19.2912 6.18336 14.7298 8.95938 13.6807 8.00512C12.6772 7.05087 15.5965 2.66995 16.6 1.71569C17.6035 0.761435 19.2456 0.761435 20.2947 1.71569C21.2983 2.66995 21.2983 4.27484 20.2947 5.2291Z" stroke="#FBD846" stroke-width="1.5"/>
<path fill-rule="evenodd" clip-rule="evenodd" d="M6.74677 5.22869C7.75028 6.18295 12.3573 9.00235 13.3608 8.04809C14.3643 7.09383 11.445 2.71292 10.3959 1.75866C9.39239 0.804404 7.75028 0.804404 6.74677 1.75866C5.74326 2.66955 5.74326 4.23106 6.74677 5.22869Z" stroke="#FBD846" stroke-width="1.5"/>
<path d="M10.3965 11.9089C10.3965 11.9089 11.0807 9.91365 13.7263 8.91602V27.8277" stroke="#FBD846" stroke-width="1.5"/>
<path d="M13.543 8.95898C13.543 8.95898 14.5921 12.429 18.2412 12.9495" stroke="#FBD846" stroke-width="1.5"/>
</svg>
