<svg width="22" height="14" viewBox="0 0 22 14" fill="none" xmlns="http://www.w3.org/2000/svg">
<path d="M0 0.000244141V0.701251V12.4565V13.1575H21.6222V12.4565V0.701251V0.000244141H0ZM13.1986 6.75145L11.236 8.42579C10.9974 8.61396 10.6241 8.61366 10.3956 8.43374L8.42329 6.75145L8.44059 6.73707L1.31427 0.61221H20.3126L13.1813 6.73737L13.1986 6.75145ZM7.39623 6.74196L0.72074 12.1952V1.04762L7.39623 6.74196ZM7.90436 7.17554L9.89468 8.87344C10.1502 9.07569 10.4781 9.17728 10.8075 9.17728C11.1401 9.17728 11.4742 9.07355 11.7376 8.86518L13.7182 7.17554L20.2903 12.5455H1.32832L7.90436 7.17554ZM14.2263 6.74227L20.9015 1.04732V12.1952L14.2263 6.74227Z" fill="#99CB38"/>
</svg>
