<svg width="24" height="24" viewBox="0 0 24 24" fill="none" xmlns="http://www.w3.org/2000/svg">
<path d="M10.653 20.0649L13.7278 16.9901L18.8093 20.5342L17.6694 21.674C16.9101 22.4333 15.7956 22.715 14.7668 22.4076C11.6214 21.468 8.79595 19.7453 6.29028 17.2397C3.78462 14.734 2.06197 11.9085 1.12234 8.7632C0.81498 7.73437 1.09666 6.61985 1.85592 5.86058L2.99581 4.7207L6.53986 9.80217L3.46502 12.877M14.8064 13.3514L14.8471 12.7715C15.0224 10.272 12.8892 8.22503 10.399 8.50332M18.3638 13.7718L18.4373 12.7237C18.7541 8.20678 14.8991 4.50767 10.3991 5.01058M22.483 14.2097L22.5945 12.6197C23.0752 5.76654 17.2264 0.154275 10.3989 0.917288" stroke="#99CB38"/>
</svg>
