<svg width="13" height="19" viewBox="0 0 13 19" fill="none" xmlns="http://www.w3.org/2000/svg">
<path d="M6.37184 2.82528C7.66834 2.82528 8.72271 3.72053 8.72271 4.82136C8.72271 5.92113 7.66834 6.81659 6.37184 6.81659C5.07659 6.81659 4.02096 5.92113 4.02096 4.82136C4.02096 3.72053 5.07659 2.82528 6.37184 2.82528ZM6.37184 9.64084C9.50371 9.64084 12.0496 7.47919 12.0496 4.82136C12.0496 2.16247 9.50371 -3.24249e-05 6.37184 -3.24249e-05C3.24071 -3.24249e-05 0.694088 2.16247 0.694088 4.82136C0.694088 7.47908 3.24071 9.64084 6.37184 9.64084ZM8.66896 13.5737C9.82484 13.35 10.9396 12.9618 11.9661 12.4141C12.743 11.9984 12.9772 11.1263 12.4876 10.4666C11.9986 9.80535 10.9721 9.60656 10.1938 10.0223C7.86821 11.2644 4.87371 11.2639 2.54934 10.0223C1.77096 9.60656 0.744587 9.80546 0.256087 10.4666C-0.233538 11.1268 -3.77297e-05 11.9984 0.777087 12.4141C1.80346 12.9612 2.91821 13.35 4.07409 13.5737L0.899713 16.2689C0.250713 16.8204 0.250712 17.7145 0.900337 18.266C1.22546 18.5415 1.65084 18.6796 2.07609 18.6796C2.50209 18.6796 2.92809 18.5416 3.25321 18.266L6.37109 15.6175L9.49171 18.266C10.1407 18.8176 11.1937 18.8176 11.8432 18.266C12.4935 17.7145 12.4935 16.8198 11.8432 16.2689C11.8433 16.2689 8.66896 13.5737 8.66896 13.5737Z" fill="#99CB38"/>
</svg>
